# Blender 3.4.1
# www.blender.org
mtllib minotaur.mtl
o minotaur_v5
v 0.084276 3.946482 0.000000
v 0.364276 3.915611 0.080000
v 0.464276 3.708944 0.046667
v 0.082984 3.575611 0.420000
v 0.284276 3.775611 -0.120000
v 0.304276 3.615611 0.340000
v 0.082984 3.475611 0.380000
v 0.344276 3.495611 0.140000
v -0.047817 3.375611 0.080000
v 0.664276 3.815611 0.040000
v 0.424276 3.915611 -0.060000
v 0.844276 4.135611 0.350301
v 0.784276 4.135611 0.190301
v 0.484276 4.338034 0.626320
v -0.197016 3.915611 0.080000
v -0.297016 3.708944 0.046667
v -0.117016 3.775611 -0.120000
v -0.137016 3.615611 0.340000
v -0.177016 3.495611 0.140000
v -0.497016 3.815611 0.040000
v -0.257016 3.915611 -0.060000
v -0.677016 4.135611 0.350301
v -0.617016 4.135611 0.190301
v -0.317016 4.338034 0.626320
v 0.260000 3.210000 -0.200000
v 0.800000 3.100000 0.140000
v 0.760000 3.100000 -0.180000
v 0.360000 3.200000 0.260000
v 0.680000 2.800000 0.320000
v 0.220000 2.800000 0.392602
v 0.620000 2.800000 -0.280000
v 0.081800 2.800000 -0.300000
v 0.353691 2.400000 0.380000
v 0.081800 2.400000 0.420000
v 0.344190 2.400000 -0.260000
v 0.081800 2.400000 -0.280000
v 0.500000 2.000000 0.280000
v 0.500000 2.000000 -0.260000
v -0.270299 1.946667 0.322061
v 0.081800 1.719070 -0.240000
v 1.020000 3.000000 0.100000
v 1.000000 3.000000 -0.080000
v 1.140000 2.720000 0.080000
v 0.940000 2.680000 0.260000
v 0.940000 2.680000 -0.140000
v 1.120000 2.320000 0.060000
v 0.900000 2.280000 0.240000
v 0.900000 2.280000 -0.160000
v 1.000000 1.900000 0.080000
v 0.820000 1.880000 0.260000
v 0.820000 1.880000 -0.140000
v 0.940000 1.560000 0.100000
v 0.780000 1.540000 0.240000
v 0.780000 1.540000 -0.100000
v 0.960000 1.360000 0.060000
v 0.800000 1.360000 0.280000
v 0.780000 1.360000 -0.100000
v 0.960000 1.180000 0.060000
v 0.800000 1.180000 0.280000
v 0.780000 1.180000 -0.100000
v 0.556874 1.940000 0.074722
v 0.466924 1.940000 0.374722
v 0.646924 1.440000 0.574722
v 0.626924 1.440000 0.334722
v 0.466924 1.440000 0.534722
v 0.406924 0.920000 0.346235
v 0.526924 0.560000 -0.083096
v 0.386924 0.560000 -0.162896
v 0.572577 0.000000 -0.100000
v 0.392577 0.000000 -0.100000
v 0.360000 0.000000 -0.320000
v 0.412577 0.000000 -0.320000
v 0.312577 0.000000 -0.200000
v 0.482577 0.000000 -0.060000
v -0.025999 3.354891 -0.129440
v 0.083630 3.765610 0.335657
v -0.076783 3.785610 0.170020
v 0.240511 3.785610 0.156714
v -0.497617 3.815611 0.040000
v -0.096400 3.210000 -0.200000
v -0.636400 3.100000 0.140000
v -0.596400 3.100000 -0.180000
v -0.196400 3.200000 0.260000
v -0.516400 2.800000 0.320000
v -0.056400 2.800000 0.392602
v -0.456400 2.800000 -0.280000
v -0.204475 2.400000 0.380000
v -0.207774 2.400000 -0.260000
v -0.336400 2.000000 0.280000
v -0.336400 2.000000 -0.260000
v -0.856400 3.000000 0.100000
v -0.836400 3.000000 -0.080000
v -0.976400 2.720000 0.080000
v -0.721259 2.680000 0.260000
v -0.721259 2.680000 -0.140000
v -0.956400 2.320000 0.060000
v -0.736400 2.280000 0.240000
v -0.736400 2.280000 -0.160000
v -0.836400 1.900000 0.080000
v -0.656400 1.880000 0.260000
v -0.656400 1.880000 -0.140000
v -0.776400 1.560000 0.100000
v -0.616400 1.540000 0.240000
v -0.616400 1.540000 -0.100000
v -0.796400 1.360000 0.060000
v -0.636400 1.360000 0.280000
v -0.616400 1.360000 -0.100000
v -0.796400 1.180000 0.060000
v -0.636400 1.180000 0.280000
v -0.616400 1.180000 -0.100000
v -0.423033 1.940000 0.381305
v -0.403033 1.940000 0.221305
v -0.403033 1.440000 0.541305
v -0.383033 1.440000 0.301305
v -0.363033 1.440000 0.641305
v -0.223033 1.440000 0.501305
v -0.323033 0.920000 0.299471
v -0.303033 0.920000 0.099471
v -0.163033 0.920000 0.319471
v -0.283033 0.560000 -0.177379
v -0.263033 0.560000 -0.337379
v -0.143033 0.560000 -0.045866
v -0.303033 0.000000 0.041305
v -0.123033 0.000000 0.041305
v -0.323033 0.000000 -0.178695
v -0.143033 0.000000 -0.178695
v -0.043033 0.000000 -0.058695
v -0.213033 0.000000 0.081305
v 0.198342 3.375611 0.080000
v -0.196400 3.200000 0.260000
v 0.188176 3.354891 -0.129440
v 0.481899 1.430000 0.210478
vn 0.3426 -0.9279 0.1468
vn 0.6197 -0.7497 -0.2324
vn 0.3958 0.9063 -0.1484
vn -0.0977 -0.9943 -0.0419
vn -0.6767 0.4164 0.6072
vn -0.2590 -0.7395 0.6213
vn 0.6220 -0.7362 0.2666
vn -0.3736 0.3445 -0.8612
vn -0.8695 0.3271 -0.3702
vn -0.5232 0.6805 -0.5130
vn -0.4586 0.7751 -0.4347
vn 0.3432 -0.6837 -0.6441
vn 0.1759 0.7720 -0.6108
vn 0.3426 0.9279 -0.1468
vn 0.6197 0.7497 0.2324
vn 0.3958 -0.9063 0.1484
vn -0.0973 0.9944 0.0417
vn -0.6767 -0.4164 -0.6072
vn -0.2579 0.7400 -0.6212
vn 0.6220 0.7362 -0.2666
vn -0.3755 -0.3442 0.8605
vn -0.8695 -0.3271 0.3702
vn -0.5254 -0.6792 0.5126
vn -0.4809 -0.7472 0.4587
vn 0.2158 0.9761 -0.0270
vn 0.2149 0.9763 -0.0255
vn 0.8976 -0.4263 -0.1122
vn 0.9137 -0.3959 -0.0914
vn 0.1504 0.2633 0.9529
vn -0.1559 -0.0210 -0.9876
vn 0.0759 -0.0498 -0.9959
vn 0.1455 0.0175 0.9892
vn -0.0370 0.0754 0.9965
vn -0.0000 1.0000 -0.0000
vn -0.3314 -0.3844 -0.8616
vn 0.3236 0.3883 0.8629
vn -0.4194 -0.1049 0.9017
vn -0.0984 -0.2731 0.9569
vn 0.1429 -0.1905 0.9712
vn 0.0760 0.0296 -0.9967
vn -0.0083 -0.0586 -0.9982
vn -0.9379 -0.3465 0.0139
vn -0.9318 -0.3630 -0.0000
vn -0.0691 0.9976 -0.0000
vn 0.4769 -0.6693 0.5698
vn 0.4066 0.9125 -0.0452
vn 0.4019 0.9143 -0.0502
vn 0.9118 0.3980 -0.1013
vn 0.7411 -0.0131 -0.6713
vn 0.6289 0.2162 0.7468
vn 0.6751 -0.0705 0.7344
vn 0.6410 -0.1021 0.7607
vn 0.7099 -0.0358 -0.7034
vn 0.7402 -0.0034 -0.6723
vn 0.7084 -0.2341 -0.6658
vn 0.7688 -0.1844 -0.6123
vn 0.6422 -0.1477 0.7521
vn 0.7090 -0.1069 0.6971
vn 0.7700 -0.1720 -0.6144
vn 0.7783 -0.1629 -0.6064
vn 0.7093 -0.0840 0.6999
vn 0.6622 -0.1214 0.7394
vn 0.7552 0.2004 -0.6242
vn 0.6644 -0.0000 -0.7474
vn 0.6621 -0.0828 0.7448
vn 0.7898 0.2154 0.5744
vn 0.8087 -0.0000 0.5882
vn -0.0000 -1.0000 -0.0000
vn 0.9986 -0.0000 -0.0526
vn 0.7258 0.6879 -0.0000
vn 0.8703 0.4177 0.2609
vn 0.5340 -0.8118 -0.2363
vn -0.0300 0.8491 0.5274
vn 0.3168 0.7685 -0.5559
vn -0.4098 -0.0335 0.9116
vn 0.9974 -0.0412 -0.0587
vn -0.7169 -0.0794 0.6927
vn 0.3432 0.6837 0.6441
vn 0.1759 -0.7720 0.6108
vn -0.6801 -0.7331 0.0017
vn 0.4439 -0.5568 -0.7021
vn -0.4439 -0.5568 -0.7021
vn -0.6228 0.7809 -0.0470
vn 0.8894 -0.1939 -0.4140
vn -0.8953 -0.1846 -0.4054
vn -0.0000 -0.9487 0.3162
vn -0.0000 -0.5747 0.8184
vn -0.2501 0.3935 0.8846
vn -0.2492 -0.3922 -0.8855
vn 0.1415 0.6487 0.7478
vn 0.2021 -0.6333 -0.7471
vn -0.7945 0.2992 0.5285
vn -0.7945 -0.2992 -0.5285
vn -0.4068 0.7727 0.4872
vn -0.4350 -0.7696 -0.4674
vn 0.1746 0.6646 0.7265
vn 0.2158 -0.9761 0.0270
vn 0.2149 -0.9763 0.0255
vn 0.8976 0.4263 0.1122
vn 0.9137 0.3959 0.0914
vn 0.1504 -0.2633 -0.9529
vn -0.1558 0.0266 0.9874
vn 0.0688 0.0498 0.9964
vn 0.1384 -0.0200 -0.9902
vn -0.0362 0.2219 -0.9744
vn -0.0370 -0.0729 -0.9967
vn -0.3314 0.3844 0.8616
vn 0.3236 -0.3883 -0.8629
vn -0.4194 0.1049 -0.9017
vn -0.0984 0.2731 -0.9569
vn 0.1356 0.1980 -0.9708
vn 0.0689 -0.0222 0.9974
vn -0.0083 0.0586 0.9982
vn -0.9500 0.3121 0.0049
vn -0.9520 0.3061 -0.0000
vn -0.6279 -0.7783 -0.0000
vn 0.4066 -0.9125 0.0452
vn 0.4019 -0.9143 0.0502
vn 0.9118 -0.3980 0.1013
vn 0.6586 0.0971 0.7462
vn 0.5487 -0.1768 -0.8171
vn 0.5823 0.0696 -0.8100
vn 0.6348 0.0146 -0.7726
vn 0.7001 -0.0621 0.7114
vn 0.6525 -0.0053 0.7577
vn 0.7084 0.2341 0.6658
vn 0.7688 0.1844 0.6123
vn 0.6422 0.1477 -0.7521
vn 0.7090 0.1069 -0.6971
vn 0.7700 0.1720 0.6144
vn 0.7783 0.1629 0.6064
vn 0.7093 0.0840 -0.6999
vn 0.6622 0.1214 -0.7394
vn 0.7552 -0.2004 0.6242
vn 0.6644 -0.0000 0.7474
vn 0.6621 0.0828 -0.7448
vn 0.7898 -0.2154 -0.5744
vn 0.8087 -0.0000 -0.5882
vn 0.9986 -0.0000 0.0526
vn 0.2095 0.7523 0.6247
vn -0.0000 -0.3304 0.9439
vn -0.0000 0.6192 0.7852
vn -0.6047 0.1022 0.7899
vn -0.0458 0.9989 -0.0057
vn 0.5572 0.8303 0.0128
vn -0.9944 -0.0663 -0.0829
vn -0.3636 0.1187 -0.9240
vn 0.1034 0.5519 -0.8275
vn -0.8674 -0.4221 -0.2636
vn 0.8379 -0.1519 -0.5242
vn -0.8471 -0.4010 0.3487
vn 0.8471 0.4010 -0.3487
vn 0.2631 -0.0071 -0.9647
vn 0.9769 0.1480 0.1542
vn -0.9934 0.0707 0.0903
vn -0.0000 0.0683 0.9977
vn -0.0000 0.3147 0.9492
vn 0.4101 -0.2634 -0.8732
vn -0.4666 -0.0020 -0.8845
vn 0.3590 0.3441 0.8676
vn -0.4270 -0.0887 0.8999
vn 0.4585 -0.8883 0.0275
vn -0.9993 0.0378 -0.0000
vn -0.9806 -0.1961 -0.0000
vn -0.9932 -0.1168 -0.0000
vn -0.9982 0.0524 -0.0277
vn -0.9982 -0.0524 0.0277
vn -0.9932 0.1168 -0.0000
vn -0.9806 0.1961 -0.0000
vn -0.9950 0.0995 -0.0000
vn 0.3850 0.9226 -0.0231
vn -0.8166 -0.5759 -0.0373
vn -0.7960 0.6036 0.0446
vn -0.0370 -0.0776 0.9963
vn -0.0000 -0.2370 0.9715
vn -0.0000 0.7158 0.6983
vn -0.8397 0.5187 -0.1611
vn -0.0000 -0.4378 0.8991
vn 0.8226 0.5500 -0.1442
vn -0.0000 0.0224 -0.9997
vn -0.9539 -0.0915 -0.2860
vn 0.7223 0.3799 -0.5779
vn 0.6542 -0.3797 0.6542
vn -0.8428 -0.0461 0.5363
vn 0.8113 0.2742 -0.5163
vn 0.2061 0.3124 -0.9273
vn 0.9570 0.1144 -0.2667
vn 0.8019 -0.3282 0.4993
vn -0.2071 0.2982 0.9318
vn -0.9900 0.1323 -0.0498
vn 0.6349 -0.2845 -0.7183
vn -0.2008 0.4329 0.8788
vn -0.8803 -0.2291 -0.4154
vn 0.6692 -0.7431 -0.0000
vn 0.6181 -0.2858 -0.7323
vn 0.8635 0.2379 0.4446
vn -0.3682 0.5988 0.7113
vn -0.0651 0.3041 0.9504
vn -0.3941 -0.6341 -0.6653
vn -0.9875 -0.0626 -0.1445
s 0
f 2//1 11//1 12//1
f 11//2 13//2 12//2
f 12//3 13//3 14//3
f 2//4 1//4 11//4
f 11//5 5//5 13//5
f 1//6 5//6 2//6
f 5//7 11//7 2//7
f 6//8 7//8 4//8
f 6//9 3//9 8//9
f 8//10 7//10 6//10
f 8//11 129//11 7//11
f 3//12 5//12 10//12
f 10//13 5//13 2//13
f 15//14 21//14 22//14
f 21//15 23//15 22//15
f 22//16 23//16 24//16
f 15//17 1//17 21//17
f 21//18 17//18 23//18
f 1//19 17//19 15//19
f 17//20 21//20 15//20
f 18//21 7//21 4//21
f 18//22 16//22 19//22
f 19//23 7//23 18//23
f 7//24 19//24 9//24
f 26//25 27//25 25//25
f 26//26 25//26 28//26
f 26//27 29//27 27//27
f 27//28 29//28 31//28
f 28//29 30//29 29//29
f 29//30 33//30 30//30
f 32//31 35//31 36//31
f 30//32 34//32 33//32
f 31//33 32//33 35//33
f 35//34 36//34 33//34
f 26//35 41//35 29//35
f 26//36 28//36 29//36
f 27//37 31//37 42//37
f 27//38 25//38 31//38
f 33//39 34//39 37//39
f 35//40 38//40 36//40
f 36//41 38//41 40//41
f 33//42 35//42 37//42
f 35//43 38//43 37//43
f 37//44 38//44 39//44
f 39//45 40//45 38//45
f 26//46 41//46 42//46
f 26//47 42//47 27//47
f 41//48 43//48 42//48
f 42//49 43//49 45//49
f 41//50 44//50 43//50
f 43//51 44//51 46//51
f 44//52 47//52 46//52
f 45//53 46//53 48//53
f 43//54 46//54 45//54
f 46//55 49//55 48//55
f 48//56 49//56 51//56
f 46//57 47//57 49//57
f 47//58 50//58 49//58
f 49//59 52//59 51//59
f 51//60 52//60 54//60
f 49//61 50//61 52//61
f 50//62 53//62 52//62
f 52//63 55//63 54//63
f 54//64 55//64 57//64
f 52//65 53//65 55//65
f 53//66 56//66 55//66
f 55//67 56//67 59//67
f 55//67 59//67 58//67
f 55//64 58//64 57//64
f 57//64 58//64 60//64
f 58//68 59//68 60//68
f 56//69 59//69 60//69
f 37//70 61//70 38//70
f 63//71 61//71 62//71
f 38//72 61//72 40//72
f 39//73 62//73 37//73
f 126//68 127//68 123//68
f 66//74 67//74 68//74
f 68//75 73//75 69//75 67//75
f 114//76 39//76 115//76 113//76 116//76
f 67//77 71//77 69//77
f 69//68 71//68 72//68
f 71//34 74//34 72//34
f 71//34 73//34 74//34
f 72//68 74//68 73//68
f 73//34 74//34 69//34
f 69//68 74//68 70//68
f 16//78 17//78 20//78
f 20//79 17//79 15//79
f 75//80 9//80 19//80
f 3//81 8//81 5//81
f 17//82 19//82 16//82
f 129//83 8//83 131//83
f 8//84 131//84 5//84
f 19//85 17//85 75//85
f 9//86 129//86 7//86
f 5//87 1//87 17//87
f 4//88 76//88 18//88
f 4//89 76//89 6//89
f 77//90 1//90 15//90
f 2//91 6//91 78//91 1//91
f 18//92 15//92 16//92
f 6//93 2//93 3//93
f 18//94 76//94 1//94 77//94
f 6//95 76//95 1//95 78//95
f 77//96 15//96 18//96
f 81//97 82//97 80//97
f 81//98 80//98 83//98
f 81//99 84//99 82//99
f 82//100 84//100 86//100
f 83//101 85//101 84//101
f 84//102 87//102 85//102
f 32//103 88//103 36//103
f 85//104 34//104 87//104
f 80//105 32//105 86//105
f 86//106 32//106 88//106
f 88//68 36//68 87//68
f 81//107 91//107 84//107
f 81//108 83//108 84//108
f 82//109 86//109 92//109
f 82//110 80//110 86//110
f 87//111 34//111 89//111
f 88//112 90//112 36//112
f 36//113 90//113 40//113
f 87//114 88//114 89//114
f 88//115 90//115 89//115
f 89//116 90//116 39//116
f 81//117 91//117 92//117
f 81//118 92//118 82//118
f 91//119 93//119 92//119
f 92//120 93//120 95//120
f 91//121 94//121 93//121
f 93//122 94//122 96//122
f 94//123 97//123 96//123
f 95//124 96//124 98//124
f 93//125 96//125 95//125
f 96//126 99//126 98//126
f 98//127 99//127 101//127
f 96//128 97//128 99//128
f 97//129 100//129 99//129
f 99//130 102//130 101//130
f 101//131 102//131 104//131
f 99//132 100//132 102//132
f 100//133 103//133 102//133
f 102//134 105//134 104//134
f 104//135 105//135 107//135
f 102//136 103//136 105//136
f 103//137 106//137 105//137
f 105//138 106//138 109//138
f 105//138 109//138 108//138
f 105//135 108//135 107//135
f 107//135 108//135 110//135
f 108//34 109//34 110//34
f 106//139 109//139 110//139
f 89//140 111//140 39//140
f 37//141 34//141 89//141
f 39//142 37//142 89//142
f 39//143 112//143 114//143
f 111//144 39//144 112//144
f 90//145 39//145 40//145
f 111//146 114//146 113//146
f 39//147 114//147 111//147
f 117//148 115//148 119//148
f 120//149 119//149 118//149 121//149 124//149 123//149
f 121//150 120//150 122//150 124//150 128//150 127//150 123//150 125//150
f 119//151 121//151 122//151
f 119//152 122//152 121//152
f 120//153 121//153 124//153 127//153 125//153
f 115//154 119//154 117//154 123//154 124//154 127//154 126//154 122//154 120//154 121//154 118//154 114//154 116//154 113//154
f 120//155 125//155 123//155
f 123//68 125//68 126//68
f 125//34 128//34 126//34
f 125//68 127//68 128//68
f 126//34 128//34 127//34
f 127//68 128//68 123//68
f 123//34 128//34 124//34
f 34//156 30//156 85//156
f 30//157 28//157 83//157 85//157
f 91//158 84//158 94//158
f 92//159 86//159 95//159
f 41//160 29//160 44//160
f 42//161 31//161 45//161
f 84//162 94//162 95//162 86//162
f 97//163 94//163 95//163 98//163
f 100//164 97//164 98//164 101//164
f 104//165 103//165 100//165 101//165
f 106//166 103//166 104//166 107//166
f 110//139 107//139 106//139
f 60//69 57//69 56//69
f 56//167 53//167 54//167 57//167
f 54//168 53//168 50//168 51//168
f 50//169 47//169 48//169 51//169
f 47//170 44//170 45//170 48//170
f 31//171 29//171 44//171 45//171
f 87//172 84//172 86//172 88//172
f 33//173 29//173 31//173 35//173
f 25//174 32//174 35//174 31//174
f 32//175 25//175 80//175
f 130//176 28//176 129//176 9//176
f 9//177 75//177 80//177 130//177
f 80//178 25//178 131//178 75//178
f 25//179 131//179 129//179 28//179
f 131//180 17//180 5//180
f 75//180 17//180 131//180
f 61//181 65//181 62//181
f 114//182 113//182 116//182 117//182
f 114//68 116//68 115//68 113//68
f 117//183 116//183 115//183
f 63//68 65//68 64//68
f 116//184 118//184 117//184 119//184
f 119//185 118//185 116//185
f 66//186 65//186 63//186
f 68//187 66//187 74//187 70//187
f 67//188 64//188 66//188
f 62//189 65//189 63//189
f 65//190 61//190 132//190 66//190
f 64//191 66//191 132//191 61//191
f 111//192 113//192 115//192 39//192
f 113//193 39//193 119//193 116//193
f 112//194 90//194 89//194
f 132//195 40//195 61//195
f 116//196 40//196 39//196
f 40//197 132//197 38//197
f 39//198 65//198 62//198
f 40//199 114//199 90//199
f 114//200 112//200 90//200
l 64 62
l 69 66
l 73 70
l 67 73
l 83 130
