# Blender 3.4.1
# www.blender.org
mtllib minotaur.mtl
o minotaur_v5
v 0.058993 2.358019 -0.057504
v 0.255007 2.325840 0.100844
v 0.324993 2.179591 0.032667
v 0.058089 2.108057 0.315216
v 0.198993 2.226258 -0.115525
v 0.212993 2.114258 0.238000
v 0.058240 1.953640 0.268982
v 0.240993 2.030258 0.098000
v -0.033472 1.946258 0.096164
v 0.464993 2.254258 0.028000
v 0.297007 2.325840 -0.045257
v -0.137911 2.324258 0.104101
v -0.207911 2.179591 0.032667
v -0.081911 2.226258 -0.115525
v -0.095911 2.114258 0.238000
v -0.123911 2.030258 0.098000
v -0.347911 2.254258 0.028000
v -0.179911 2.324258 -0.042000
v -0.401153 2.449723 0.191065
v -0.431911 2.478258 0.133211
v -0.221911 2.619955 0.438424
v 0.182000 1.866805 -0.140000
v 0.252000 1.859805 0.158568
v 0.463097 1.789804 -0.126000
v 0.476000 1.579805 0.224000
v 0.057260 1.579805 0.274821
v 0.434000 1.579805 -0.196000
v 0.057260 1.579805 -0.210000
v 0.278375 1.042530 0.205490
v 0.055582 0.955482 0.224157
v 0.240933 1.068476 -0.182000
v 0.054089 1.001455 -0.191333
v 0.355373 0.027469 0.141656
v 0.299279 0.027469 -0.085313
v 0.616899 1.719805 0.070000
v 0.602899 1.719805 -0.056000
v 0.729097 1.523805 0.056000
v 0.589097 1.495805 0.182000
v 0.589097 1.495805 -0.098000
v 0.715097 1.243804 0.042000
v 0.561097 1.215804 0.168000
v 0.561097 1.215804 -0.112000
v 0.631097 0.949805 0.056000
v 0.505097 0.935805 0.182000
v 0.505097 0.935805 -0.098000
v -0.018199 1.931754 -0.053601
v 0.058541 2.267226 0.195323
v -0.116911 2.219258 0.171051
v 0.234000 2.220049 0.169422
v -0.067480 1.866805 -0.140000
v -0.137480 1.859805 0.158568
v -0.325345 1.789804 -0.126000
v -0.361480 1.579805 0.224000
v -0.319480 1.579805 -0.196000
v -0.173923 1.042530 0.205490
v -0.145442 1.068476 -0.182000
v -0.223830 0.027469 0.141656
v -0.507345 1.719805 0.070000
v -0.493345 1.719805 -0.056000
v -0.591345 1.523805 0.056000
v -0.412746 1.495805 0.182000
v -0.412746 1.495805 -0.098000
v -0.577345 1.243804 0.042000
v -0.423345 1.215804 0.168000
v -0.423345 1.215804 -0.112000
v -0.493345 0.949805 0.056000
v -0.367345 0.935805 0.182000
v -0.367345 0.935805 -0.098000
v 0.138839 1.946258 0.096164
v 0.131723 1.931754 -0.053601
v -0.165618 0.021105 -0.049887
v 0.058541 2.369800 0.191267
v -0.018836 2.045181 0.256881
v 0.135616 2.045181 0.256881
v 0.183055 0.025878 -0.076457
v -0.049394 0.022696 -0.058744
v -0.089110 0.027469 0.141656
v 0.203630 0.027469 0.141656
v -0.269451 0.741175 0.200745
v -0.218879 0.713620 -0.165566
v 0.384446 0.742889 0.200745
v 0.335221 0.717809 -0.180721
v -0.348225 2.469094 0.191672
v 0.518263 2.452886 0.184550
v 0.549021 2.481421 0.126697
v 0.339021 2.623119 0.431910
v 0.465335 2.472257 0.185157
v -0.029185 2.204742 0.168387
v 0.146270 2.198564 0.167572
v 0.058390 2.045181 0.258201
vn 0.1378 0.9897 0.0396
vn -0.1273 0.5106 -0.8503
vn 0.6249 -0.7597 0.1797
vn 0.8695 -0.3271 0.3702
vn 0.7191 -0.3946 0.5721
vn 0.6937 -0.6383 0.3338
vn 0.6394 -0.4389 0.6314
vn 0.5282 -0.5933 0.6074
vn 0.4979 -0.8443 0.1979
vn 0.4538 -0.7883 0.4155
vn 0.7307 -0.6032 0.3197
vn 0.3772 -0.7419 -0.5543
vn 0.1399 0.8905 -0.4330
vn -0.3949 -0.8991 0.1889
vn -0.6781 0.7232 0.1308
vn -0.1373 0.9897 0.0395
vn 0.5163 -0.1199 0.8480
vn 0.1278 0.5103 -0.8505
vn -0.6249 -0.7597 0.1797
vn -0.8695 -0.3271 0.3702
vn -0.7882 -0.4179 0.4518
vn -0.7844 -0.4021 0.4723
vn -0.7870 -0.4194 0.4525
vn -0.7934 -0.4161 0.4442
vn -0.6952 -0.6900 0.2015
vn -0.6723 -0.7138 0.1962
vn -0.6758 -0.7104 0.1966
vn 0.2658 0.9632 -0.0410
vn 0.2658 0.9632 -0.0408
vn 0.2659 0.9631 -0.0409
vn 0.8879 -0.4398 -0.1352
vn 0.8914 -0.4011 -0.2112
vn 0.8913 -0.3865 -0.2370
vn 0.9896 -0.1041 -0.0990
vn 0.1479 0.3360 0.9302
vn 0.1475 0.3365 0.9301
vn 0.1332 -0.1224 0.9835
vn 0.0775 -0.0606 0.9951
vn 0.1486 -0.0417 0.9880
vn 0.0873 -0.0236 -0.9959
vn 0.0862 -0.0210 -0.9961
vn 0.0844 -0.0178 -0.9963
vn 0.1649 -0.1107 0.9801
vn 0.1922 -0.0805 0.9781
vn 0.1648 -0.1029 0.9809
vn 0.0371 -0.0413 -0.9985
vn 0.3707 0.4885 0.7899
vn 0.3818 0.4909 0.7831
vn 0.3783 0.4797 0.7917
vn 0.5183 0.2049 -0.8303
vn 0.1286 0.2975 -0.9460
vn -0.0672 -0.0958 -0.9931
vn -0.0529 -0.1089 -0.9926
vn -0.0622 -0.1152 -0.9914
vn -0.0653 -0.0947 -0.9934
vn -0.0610 -0.1155 -0.9914
vn 0.9858 0.0807 -0.1473
vn 0.4699 0.8812 -0.0520
vn 0.4699 0.8812 -0.0521
vn 0.4696 0.8812 -0.0542
vn 0.4540 0.8879 -0.0742
vn 0.4693 0.8804 -0.0683
vn 0.4662 0.8819 -0.0696
vn 0.8609 0.4997 -0.0957
vn 0.7299 0.0823 -0.6785
vn 0.6062 0.2942 0.7389
vn 0.6751 -0.0705 0.7344
vn 0.6410 -0.1021 0.7607
vn 0.7099 -0.0358 -0.7034
vn 0.7402 -0.0034 -0.6723
vn 0.7084 -0.2341 -0.6658
vn 0.7688 -0.1844 -0.6123
vn 0.6422 -0.1477 0.7521
vn 0.7090 -0.1069 0.6971
vn -0.3772 -0.7419 -0.5543
vn -0.1399 0.8905 -0.4330
vn -0.6805 -0.7327 0.0016
vn 0.5275 -0.5717 -0.6285
vn -0.5275 -0.5717 -0.6285
vn 0.6340 -0.7720 0.0446
vn 0.8558 -0.2861 -0.4310
vn -0.8633 -0.2757 -0.4228
vn -0.0018 -0.9767 -0.2148
vn 0.0017 -0.9767 -0.2148
vn 0.0001 -0.9767 -0.2148
vn -0.0000 0.4030 -0.9152
vn -0.8452 0.1567 0.5109
vn 0.8452 0.1567 0.5109
vn 0.8469 0.1662 0.5050
vn -0.2881 0.9565 -0.0451
vn -0.4238 0.8688 0.2561
vn 0.4625 0.6862 0.5614
vn -0.6824 -0.5459 0.4861
vn -0.4116 0.3901 -0.8236
vn -0.9950 0.0054 -0.0995
vn -0.1499 0.2874 0.9460
vn -0.1134 0.3527 0.9288
vn -0.0740 0.2992 0.9513
vn -0.1610 -0.0948 0.9824
vn -0.1595 -0.0978 0.9823
vn -0.1508 -0.1090 0.9825
vn -0.0807 -0.0306 -0.9963
vn -0.0546 -0.0551 -0.9970
vn -0.0556 -0.0086 -0.9984
vn -0.1342 -0.0367 0.9903
vn -0.0675 -0.0688 0.9953
vn -0.1157 -0.1733 0.9780
vn -0.0362 0.2219 -0.9744
vn -0.0371 -0.0400 -0.9985
vn -0.3770 0.4771 0.7939
vn -0.3779 0.4777 0.7931
vn -0.3778 0.4776 0.7932
vn -0.4637 0.2685 -0.8443
vn -0.1434 0.3094 -0.9401
vn -0.2416 0.9697 0.0374
vn -0.4005 0.9128 0.0799
vn -0.3132 0.9349 -0.1671
vn -0.2233 0.9734 0.0515
vn -0.4847 0.8652 0.1283
vn -0.3035 0.9447 -0.1239
vn -0.9118 0.3980 -0.1013
vn -0.6586 -0.0971 -0.7462
vn -0.5487 0.1768 0.8171
vn -0.5823 -0.0696 0.8100
vn -0.6348 -0.0146 0.7726
vn -0.7001 0.0621 -0.7114
vn -0.6525 0.0053 -0.7577
vn -0.7084 -0.2341 -0.6658
vn -0.7688 -0.1844 -0.6123
vn -0.6422 -0.1477 0.7521
vn -0.7090 -0.1069 0.6971
vn -0.0000 0.3835 0.9236
vn -0.6942 0.0653 0.7168
vn -0.6737 -0.1053 -0.7314
vn 0.5318 0.3250 0.7820
vn 0.5748 0.1164 -0.8099
vn 0.7648 -0.6427 0.0459
vn 0.9993 -0.0378 -0.0000
vn 0.9806 0.1961 -0.0000
vn -0.9806 0.1961 -0.0000
vn -0.9950 0.0995 -0.0000
vn -0.5354 -0.8440 0.0321
vn -0.9414 -0.3242 -0.0926
vn 0.9322 -0.3469 -0.1029
vn 0.0371 0.0552 -0.9978
vn -0.0000 0.2370 -0.9715
vn -0.0000 0.5853 0.8108
vn -0.8863 0.4531 -0.0959
vn -0.8856 0.4642 -0.0163
vn -0.8805 0.4737 -0.0187
vn -0.8883 0.4566 -0.0494
vn -0.0000 0.7993 -0.6009
vn 0.6641 0.7369 -0.1266
vn -0.0000 -0.2058 -0.9786
vn -0.4217 0.4332 0.7966
vn -0.3775 0.4504 0.8091
vn -0.3963 0.4342 0.8090
vn -0.4081 0.4483 0.7953
vn 0.6165 0.4503 0.6459
vn 0.3137 0.2921 0.9035
vn 0.3810 0.5801 0.7199
vn 0.4271 0.2439 0.8707
vn -0.4244 0.6683 0.6109
vn -0.3745 0.7024 0.6053
vn -0.4252 0.6884 0.5876
vn -0.3922 0.6903 0.6080
vn 0.4777 0.6579 0.5822
vn 0.4304 0.6945 0.5766
vn 0.4789 0.6905 0.5421
vn 0.3087 0.7993 0.5156
vn -0.4123 0.0360 0.9104
vn 0.4123 0.0360 0.9103
vn -0.0000 -0.8863 0.4631
vn -0.2640 0.1708 0.9493
vn -0.3096 0.1452 0.9397
vn -0.1692 0.1837 0.9683
vn -0.2358 0.1303 0.9630
vn 0.3651 0.0514 0.9295
vn 0.2879 0.0909 0.9533
vn 0.2306 0.0282 0.9726
vn 0.3911 0.1950 0.8994
vn -0.2059 0.9775 -0.0467
vn 0.2062 0.9774 -0.0459
vn -0.0387 -0.6520 0.7572
vn 0.3676 -0.5588 0.7434
vn 0.0127 -0.6717 0.7408
vn -0.9866 0.0502 -0.1554
vn 0.0067 -0.1117 -0.9937
vn 0.0065 -0.1417 -0.9899
vn 0.0021 -0.1397 -0.9902
vn 0.0127 -0.1119 -0.9936
vn 0.0036 -0.1413 -0.9900
vn -0.0226 -0.0662 0.9976
vn -0.0231 -0.0714 0.9972
vn -0.0291 -0.1139 0.9931
vn -0.0585 -0.1012 0.9931
vn -0.0216 -0.0664 0.9976
vn 0.0712 -0.0630 0.9955
vn -0.0279 -0.0795 0.9964
vn 0.0227 -0.0716 0.9972
vn 0.0222 -0.0662 0.9976
vn 0.0655 -0.0989 0.9929
vn -0.9951 -0.0938 0.0305
vn -0.9888 -0.1452 0.0348
vn -0.9889 -0.1444 0.0349
vn -0.9893 -0.1433 0.0270
vn 0.9903 -0.1273 0.0553
vn 0.9913 -0.1263 0.0369
vn 0.9890 -0.1376 0.0549
vn 0.9925 -0.1222 0.0076
vn 0.0100 -0.9995 0.0301
vn 0.0226 -0.9993 0.0307
vn 0.0220 -0.9992 0.0346
vn 0.0100 -0.9995 0.0302
vn 0.0032 -1.0000 0.0024
vn 0.0033 -1.0000 0.0023
vn 0.0161 -0.9999 0.0010
vn 0.0163 -0.9999 -0.0005
vn 0.2679 -0.8769 0.3990
vn 0.5012 0.6001 -0.6235
vn 0.4194 -0.8879 0.1889
vn 0.4050 -0.8913 0.2040
vn 0.4164 -0.8881 0.1949
vn 0.4251 -0.8837 0.1956
vn 0.4096 -0.8888 0.2056
vn 0.4553 0.7439 0.4892
vn 0.8392 -0.5073 0.1959
vn 0.5216 -0.4778 0.7068
vn -0.3582 -0.8699 0.3391
vn -0.3073 -0.8528 0.4223
vn -0.3153 -0.8928 0.3217
vn -0.5012 0.6001 -0.6235
vn 0.2881 -0.5357 0.7937
vn -0.0127 -0.6717 0.7407
vn 0.3099 -0.7570 0.5752
vn 0.2826 -0.0277 0.9589
vn -0.0164 0.2965 0.9549
vn -0.0170 0.1170 0.9930
vn -0.0359 0.0948 0.9948
vn 0.0170 0.1169 0.9930
vn 0.1341 0.2538 0.9579
s 0
f 2//1 11//1 1//1
f 1//2 14//2 18//2
f 5//3 11//3 2//3
f 6//4 8//4 3//4
f 8//5 6//6 74//7 7//8
f 8//9 7//10 69//11
f 3//12 5//12 10//12
f 10//13 5//13 2//13
f 18//14 12//14 83//14 19//14 20//14
f 19//15 21//15 20//15
f 12//16 1//16 18//16
f 18//17 20//17 14//17
f 11//18 5//18 1//18
f 14//19 12//19 18//19
f 15//20 13//20 16//20
f 16//21 7//22 73//23 15//24
f 7//25 16//26 9//27
f 23//28 24//29 22//30
f 23//31 25//32 24//33
f 24//34 25//34 27//34
f 23//35 26//36 25//35
f 25//37 26//38 29//39
f 28//40 31//41 32//42
f 26//43 30//44 29//45
f 27//46 31//46 28//46
f 23//47 25//48 35//49
f 24//50 36//50 27//50
f 24//51 27//51 22//51
f 31//52 82//53 34//54 75//55 32//56
f 31//57 29//57 81//57 33//57 34//57 82//57
f 23//58 35//59 36//60
f 23//61 36//62 24//63
f 35//64 37//64 36//64
f 36//65 37//65 39//65
f 35//66 38//66 37//66
f 37//67 38//67 40//67
f 38//68 41//68 40//68
f 39//69 40//69 42//69
f 37//70 40//70 39//70
f 40//71 43//71 42//71
f 42//72 43//72 45//72
f 40//73 41//73 43//73
f 41//74 44//74 43//74
f 13//75 17//75 14//75
f 17//76 12//76 14//76
f 46//77 9//77 16//77
f 3//78 8//78 5//78
f 14//79 16//79 13//79
f 69//80 70//80 8//80
f 8//81 70//81 5//81
f 16//82 14//82 46//82
f 9//83 69//84 7//85
f 5//86 14//86 1//86
f 15//87 48//87 12//87 13//87
f 6//88 3//88 2//88 49//89
f 52//90 51//91 50//90
f 51//92 52//93 53//94
f 52//95 54//95 53//95
f 51//96 53//97 26//98
f 53//99 55//100 26//101
f 28//102 32//103 56//104
f 26//105 55//106 30//107
f 50//108 28//108 54//108
f 54//109 28//109 56//109
f 51//110 58//111 53//112
f 52//113 54//113 59//113
f 52//114 50//114 54//114
f 51//115 59//116 58//117
f 51//118 52//119 59//120
f 58//121 59//121 60//121
f 59//122 62//122 60//122
f 58//123 60//123 61//123
f 60//124 63//124 61//124
f 61//125 63//125 64//125
f 62//126 65//126 63//126
f 60//127 62//127 63//127
f 63//128 65//128 66//128
f 65//129 68//129 66//129
f 63//130 66//130 64//130
f 64//131 66//131 67//131
f 26//132 23//132 51//132
f 58//133 61//133 53//133
f 59//134 54//134 62//134
f 35//135 25//135 38//135
f 36//136 39//136 27//136
f 53//137 61//137 62//137 54//137
f 64//138 65//138 62//138 61//138
f 67//139 68//139 65//139 64//139
f 44//140 41//140 42//140 45//140
f 41//141 38//141 39//141 42//141
f 27//142 39//142 38//142 25//142
f 55//143 53//143 54//143 56//143
f 29//144 31//144 27//144 25//144
f 22//145 27//145 31//145 28//145
f 28//146 50//146 22//146
f 51//147 23//147 69//147 9//147
f 9//148 46//149 50//150 51//151
f 50//152 46//152 70//152 22//152
f 22//153 70//153 69//153 23//153
f 70//154 14//154 5//154
f 46//154 14//154 70//154
f 15//155 73//156 4//157 48//158
f 6//159 49//160 4//161 74//162
f 47//163 88//164 48//165 4//166
f 47//167 4//168 49//169 89//170
f 12//171 47//171 72//171
f 2//172 72//172 47//172
f 72//173 12//173 2//173
f 12//174 48//175 88//176 47//177
f 49//178 2//179 47//180 89//181
f 72//182 1//182 12//182
f 72//183 2//183 1//183
f 74//184 4//185 90//186
f 71//187 57//187 79//187 55//187 56//187 80//187
f 71//188 80//189 56//190 32//191 76//192
f 57//193 77//194 30//195 55//196 79//197
f 29//198 30//199 78//200 33//201 81//202
f 30//203 32//204 75//205 78//206
f 77//207 76//208 32//209 30//210
f 57//211 71//212 76//213 77//214
f 33//215 78//216 75//217 34//218
f 21//219 19//219 83//219
f 21//220 83//220 20//220
f 11//221 85//222 84//223 87//224 2//225
f 84//226 85//227 86//228
f 86//229 87//230 84//231
f 86//232 85//232 87//232
f 73//233 90//234 4//235
f 73//236 7//237 90//238
f 74//239 90//240 7//241
